<?xml version="1.0" encoding="UTF-8" standalone="no"?>
<!DOCTYPE svg PUBLIC "-//W3C//DTD SVG 1.1//EN"
 "http://www.w3.org/Graphics/SVG/1.1/DTD/svg11.dtd">
<!-- Generated by graphviz version 2.47.0 (20210316.0004)
 -->
<!-- Title: dependencies Pages: 1 -->
<svg width="1341pt" height="284pt"
 viewBox="0.00 0.00 1341.00 284.00" xmlns="http://www.w3.org/2000/svg" xmlns:xlink="http://www.w3.org/1999/xlink">
<g id="graph0" class="graph" transform="scale(1 1) rotate(0) translate(4 280)">
<title>dependencies</title>
<polygon fill="white" stroke="transparent" points="-4,4 -4,-280 1337,-280 1337,4 -4,4"/>
<text text-anchor="start" x="645.51" y="-42.4" font-family="Times-12" font-weight="bold" font-size="14.00">Legend</text>
<polygon fill="#ffffb3" stroke="transparent" points="432.5,-10 432.5,-30 452.5,-30 452.5,-10 432.5,-10"/>
<text text-anchor="start" x="456.13" y="-15.4" font-family="Times-12" font-size="14.00"> &#160;Declarations</text>
<polygon fill="#8dd3c7" stroke="transparent" points="545.5,-10 545.5,-30 565.5,-30 565.5,-10 545.5,-10"/>
<text text-anchor="start" x="569.23" y="-15.4" font-family="Times-12" font-size="14.00"> &#160;Module</text>
<polygon fill="#80b1d3" stroke="transparent" points="631.5,-10 631.5,-30 651.5,-30 651.5,-10 631.5,-10"/>
<text text-anchor="start" x="655.28" y="-15.4" font-family="Times-12" font-size="14.00"> &#160;Bootstrap</text>
<polygon fill="#fdb462" stroke="transparent" points="728.5,-10 728.5,-30 748.5,-30 748.5,-10 728.5,-10"/>
<text text-anchor="start" x="752.17" y="-15.4" font-family="Times-12" font-size="14.00"> &#160;Providers</text>
<polygon fill="#fb8072" stroke="transparent" points="824.5,-10 824.5,-30 844.5,-30 844.5,-10 824.5,-10"/>
<text text-anchor="start" x="848.23" y="-15.4" font-family="Times-12" font-size="14.00"> &#160;Exports</text>
<g id="clust1" class="cluster">
<title>cluster_AppModule</title>
<polygon fill="none" stroke="black" stroke-dasharray="1,5" points="8,-70 8,-268 1325,-268 1325,-70 8,-70"/>
</g>
<g id="clust2" class="cluster">
<title>cluster_AppModule_declarations</title>
<polygon fill="none" stroke="black" points="293,-78 293,-130 1317,-130 1317,-78 293,-78"/>
</g>
<g id="clust10" class="cluster">
<title>cluster_AppModule_imports</title>
<polygon fill="none" stroke="black" points="16,-78 16,-130 285,-130 285,-78 16,-78"/>
</g>
<g id="clust12" class="cluster">
<title>cluster_AppModule_bootstrap</title>
<polygon fill="none" stroke="black" points="631,-208 631,-260 755,-260 755,-208 631,-208"/>
</g>
<!-- AppComponent -->
<g id="node1" class="node">
<title>AppComponent</title>
<polygon fill="#ffffb3" stroke="black" points="1308.94,-122 1203.06,-122 1203.06,-86 1308.94,-86 1308.94,-122"/>
<text text-anchor="middle" x="1256" y="-99.8" font-family="Times,serif" font-size="14.00">AppComponent</text>
</g>
<!-- AppModule -->
<g id="node8" class="node">
<title>AppModule</title>
<polygon fill="#8dd3c7" stroke="black" points="734.66,-187 731.66,-191 710.66,-191 707.66,-187 651.34,-187 651.34,-151 734.66,-151 734.66,-187"/>
<text text-anchor="middle" x="693" y="-164.8" font-family="Times,serif" font-size="14.00">AppModule</text>
</g>
<!-- AppComponent&#45;&gt;AppModule -->
<g id="edge1" class="edge">
<title>AppComponent&#45;&gt;AppModule</title>
<path fill="none" stroke="black" d="M1256,-122.01C1256,-144.49 1256,-180 1256,-180 1256,-180 744.86,-180 744.86,-180"/>
<polygon fill="black" stroke="black" points="744.86,-176.5 734.86,-180 744.86,-183.5 744.86,-176.5"/>
</g>
<!-- CadastroComponent -->
<g id="node2" class="node">
<title>CadastroComponent</title>
<polygon fill="#ffffb3" stroke="black" points="1185.59,-122 1054.41,-122 1054.41,-86 1185.59,-86 1185.59,-122"/>
<text text-anchor="middle" x="1120" y="-99.8" font-family="Times,serif" font-size="14.00">CadastroComponent</text>
</g>
<!-- CadastroComponent&#45;&gt;AppModule -->
<g id="edge2" class="edge">
<title>CadastroComponent&#45;&gt;AppModule</title>
<path fill="none" stroke="black" d="M1120,-122.13C1120,-142.57 1120,-173 1120,-173 1120,-173 744.72,-173 744.72,-173"/>
<polygon fill="black" stroke="black" points="744.72,-169.5 734.72,-173 744.72,-176.5 744.72,-169.5"/>
</g>
<!-- DetalhesComponent -->
<g id="node3" class="node">
<title>DetalhesComponent</title>
<polygon fill="#ffffb3" stroke="black" points="1036.31,-122 905.69,-122 905.69,-86 1036.31,-86 1036.31,-122"/>
<text text-anchor="middle" x="971" y="-99.8" font-family="Times,serif" font-size="14.00">DetalhesComponent</text>
</g>
<!-- DetalhesComponent&#45;&gt;AppModule -->
<g id="edge3" class="edge">
<title>DetalhesComponent&#45;&gt;AppModule</title>
<path fill="none" stroke="black" d="M971,-122.27C971,-140.56 971,-166 971,-166 971,-166 744.92,-166 744.92,-166"/>
<polygon fill="black" stroke="black" points="744.92,-162.5 734.92,-166 744.92,-169.5 744.92,-162.5"/>
</g>
<!-- EditarComponent -->
<g id="node4" class="node">
<title>EditarComponent</title>
<polygon fill="#ffffb3" stroke="black" points="887.54,-122 772.46,-122 772.46,-86 887.54,-86 887.54,-122"/>
<text text-anchor="middle" x="830" y="-99.8" font-family="Times,serif" font-size="14.00">EditarComponent</text>
</g>
<!-- EditarComponent&#45;&gt;AppModule -->
<g id="edge4" class="edge">
<title>EditarComponent&#45;&gt;AppModule</title>
<path fill="none" stroke="black" d="M830,-122.01C830,-138.05 830,-159 830,-159 830,-159 744.85,-159 744.85,-159"/>
<polygon fill="black" stroke="black" points="744.85,-155.5 734.85,-159 744.85,-162.5 744.85,-155.5"/>
</g>
<!-- ExcluirComponent -->
<g id="node5" class="node">
<title>ExcluirComponent</title>
<polygon fill="#ffffb3" stroke="black" points="754.04,-122 631.96,-122 631.96,-86 754.04,-86 754.04,-122"/>
<text text-anchor="middle" x="693" y="-99.8" font-family="Times,serif" font-size="14.00">ExcluirComponent</text>
</g>
<!-- ExcluirComponent&#45;&gt;AppModule -->
<g id="edge5" class="edge">
<title>ExcluirComponent&#45;&gt;AppModule</title>
<path fill="none" stroke="black" d="M693,-122.11C693,-122.11 693,-140.99 693,-140.99"/>
<polygon fill="black" stroke="black" points="689.5,-140.99 693,-150.99 696.5,-140.99 689.5,-140.99"/>
</g>
<!-- FuncionarioFormComponent -->
<g id="node6" class="node">
<title>FuncionarioFormComponent</title>
<polygon fill="#ffffb3" stroke="black" points="613.82,-122 434.18,-122 434.18,-86 613.82,-86 613.82,-122"/>
<text text-anchor="middle" x="524" y="-99.8" font-family="Times,serif" font-size="14.00">FuncionarioFormComponent</text>
</g>
<!-- FuncionarioFormComponent&#45;&gt;AppModule -->
<g id="edge6" class="edge">
<title>FuncionarioFormComponent&#45;&gt;AppModule</title>
<path fill="none" stroke="black" d="M524,-122.01C524,-138.05 524,-159 524,-159 524,-159 641.22,-159 641.22,-159"/>
<polygon fill="black" stroke="black" points="641.22,-162.5 651.22,-159 641.22,-155.5 641.22,-162.5"/>
</g>
<!-- HomeComponent -->
<g id="node7" class="node">
<title>HomeComponent</title>
<polygon fill="#ffffb3" stroke="black" points="416.55,-122 301.45,-122 301.45,-86 416.55,-86 416.55,-122"/>
<text text-anchor="middle" x="359" y="-99.8" font-family="Times,serif" font-size="14.00">HomeComponent</text>
</g>
<!-- HomeComponent&#45;&gt;AppModule -->
<g id="edge7" class="edge">
<title>HomeComponent&#45;&gt;AppModule</title>
<path fill="none" stroke="black" d="M359,-122.27C359,-140.56 359,-166 359,-166 359,-166 641.04,-166 641.04,-166"/>
<polygon fill="black" stroke="black" points="641.04,-169.5 651.04,-166 641.04,-162.5 641.04,-169.5"/>
</g>
<!-- AppComponent  -->
<g id="node11" class="node">
<title>AppComponent </title>
<polygon fill="#80b1d3" stroke="black" points="747.44,-252 638.56,-252 638.56,-216 747.44,-216 747.44,-252"/>
<text text-anchor="middle" x="693" y="-229.8" font-family="Times,serif" font-size="14.00">AppComponent </text>
</g>
<!-- AppModule&#45;&gt;AppComponent  -->
<g id="edge10" class="edge">
<title>AppModule&#45;&gt;AppComponent </title>
<path fill="none" stroke="black" stroke-dasharray="1,5" d="M693,-187.11C693,-187.11 693,-205.99 693,-205.99"/>
<polygon fill="black" stroke="black" points="689.5,-205.99 693,-215.99 696.5,-205.99 689.5,-205.99"/>
</g>
<!-- AppRoutingModule -->
<g id="node9" class="node">
<title>AppRoutingModule</title>
<polygon fill="#8dd3c7" stroke="black" points="277.27,-122 274.27,-126 253.27,-126 250.27,-122 148.73,-122 148.73,-86 277.27,-86 277.27,-122"/>
<text text-anchor="middle" x="213" y="-99.8" font-family="Times,serif" font-size="14.00">AppRoutingModule</text>
</g>
<!-- AppRoutingModule&#45;&gt;AppModule -->
<g id="edge8" class="edge">
<title>AppRoutingModule&#45;&gt;AppModule</title>
<path fill="none" stroke="black" d="M213,-122.13C213,-142.57 213,-173 213,-173 213,-173 641.24,-173 641.24,-173"/>
<polygon fill="black" stroke="black" points="641.24,-176.5 651.24,-173 641.24,-169.5 641.24,-176.5"/>
</g>
<!-- MaterialModule -->
<g id="node10" class="node">
<title>MaterialModule</title>
<polygon fill="#8dd3c7" stroke="black" points="130.47,-122 127.47,-126 106.47,-126 103.47,-122 23.53,-122 23.53,-86 130.47,-86 130.47,-122"/>
<text text-anchor="middle" x="77" y="-99.8" font-family="Times,serif" font-size="14.00">MaterialModule</text>
</g>
<!-- MaterialModule&#45;&gt;AppModule -->
<g id="edge9" class="edge">
<title>MaterialModule&#45;&gt;AppModule</title>
<path fill="none" stroke="black" d="M77,-122.01C77,-144.49 77,-180 77,-180 77,-180 641.14,-180 641.14,-180"/>
<polygon fill="black" stroke="black" points="641.14,-183.5 651.14,-180 641.14,-176.5 641.14,-183.5"/>
</g>
</g>
</svg>
